<svg width="144" height="24" viewBox="0 0 144 24" fill="none" xmlns="http://www.w3.org/2000/svg">
<path d="M8.58737 8.23597L11.1849 3.00376C11.5183 2.33208 12.4817 2.33208 12.8151 3.00376L15.4126 8.23597L21.2215 9.08017C21.9668 9.18848 22.2638 10.0994 21.7243 10.6219L17.5217 14.6918L18.5135 20.4414C18.6409 21.1798 17.8614 21.7428 17.1945 21.3941L12 18.678L6.80547 21.3941C6.1386 21.7428 5.35909 21.1798 5.48645 20.4414L6.47825 14.6918L2.27575 10.6219C1.73617 10.0994 2.03322 9.18848 2.77852 9.08017L8.58737 8.23597Z" fill="#131313" stroke="#131313" stroke-width="1.5" stroke-linecap="round" stroke-linejoin="round"/>
<path d="M38.5874 8.23597L41.1849 3.00376C41.5183 2.33208 42.4817 2.33208 42.8151 3.00376L45.4126 8.23597L51.2215 9.08017C51.9668 9.18848 52.2638 10.0994 51.7243 10.6219L47.5217 14.6918L48.5135 20.4414C48.6409 21.1798 47.8614 21.7428 47.1945 21.3941L42 18.678L36.8055 21.3941C36.1386 21.7428 35.3591 21.1798 35.4865 20.4414L36.4783 14.6918L32.2758 10.6219C31.7362 10.0994 32.0332 9.18848 32.7785 9.08017L38.5874 8.23597Z" fill="#131313" stroke="#131313" stroke-width="1.5" stroke-linecap="round" stroke-linejoin="round"/>
<path d="M68.5874 8.23597L71.1849 3.00376C71.5183 2.33208 72.4817 2.33208 72.8151 3.00376L75.4126 8.23597L81.2215 9.08017C81.9668 9.18848 82.2638 10.0994 81.7243 10.6219L77.5217 14.6918L78.5135 20.4414C78.6409 21.1798 77.8614 21.7428 77.1945 21.3941L72 18.678L66.8055 21.3941C66.1386 21.7428 65.3591 21.1798 65.4865 20.4414L66.4783 14.6918L62.2758 10.6219C61.7362 10.0994 62.0332 9.18848 62.7785 9.08017L68.5874 8.23597Z" fill="#131313" stroke="#131313" stroke-width="1.5" stroke-linecap="round" stroke-linejoin="round"/>
<path d="M98.5874 8.23597L101.185 3.00376C101.518 2.33208 102.482 2.33208 102.815 3.00376L105.413 8.23597L111.221 9.08017C111.967 9.18848 112.264 10.0994 111.724 10.6219L107.522 14.6918L108.514 20.4414C108.641 21.1798 107.861 21.7428 107.195 21.3941L102 18.678L96.8055 21.3941C96.1386 21.7428 95.3591 21.1798 95.4865 20.4414L96.4783 14.6918L92.2758 10.6219C91.7362 10.0994 92.0332 9.18848 92.7785 9.08017L98.5874 8.23597Z" fill="#131313" stroke="#131313" stroke-width="1.5" stroke-linecap="round" stroke-linejoin="round"/>
<path d="M128.587 8.23597L131.185 3.00376C131.518 2.33208 132.482 2.33208 132.815 3.00376L135.413 8.23597L141.221 9.08017C141.967 9.18848 142.264 10.0994 141.724 10.6219L137.522 14.6918L138.514 20.4414C138.641 21.1798 137.861 21.7428 137.195 21.3941L132 18.678L126.805 21.3941C126.139 21.7428 125.359 21.1798 125.486 20.4414L126.478 14.6918L122.276 10.6219C121.736 10.0994 122.033 9.18848 122.779 9.08017L128.587 8.23597Z" fill="#131313" stroke="#131313" stroke-width="1.5" stroke-linecap="round" stroke-linejoin="round"/>
</svg>
